<?xml version="1.0" standalone="no"?>
<!DOCTYPE svg PUBLIC "-//W3C//DTD SVG 20010904//EN"
 "http://www.w3.org/TR/2001/REC-SVG-20010904/DTD/svg10.dtd">
<svg version="1.0" xmlns="http://www.w3.org/2000/svg"
 width="637.000000pt" height="637.000000pt" viewBox="0 0 637.000000 637.000000"
 preserveAspectRatio="xMidYMid meet">
<metadata>
Created by potrace 1.14, written by Peter Selinger 2001-2017
</metadata>
<g transform="translate(0.000000,637.000000) scale(0.100000,-0.100000)"
fill="#000000" stroke="none">
<path d="M2945 5534 c-16 -3 -79 -11 -140 -20 -379 -52 -808 -240 -1125 -492
-249 -198 -444 -424 -601 -697 -57 -99 -135 -264 -153 -322 l-7 -23 273 0 274
0 28 58 c141 288 385 555 666 727 479 294 1083 357 1619 170 417 -146 797
-472 993 -852 l53 -103 277 0 276 0 -5 23 c-10 43 -143 303 -206 404 -36 56
-93 139 -128 185 -88 116 -336 366 -448 450 -306 232 -636 383 -999 459 -135
28 -165 31 -382 34 -129 2 -248 1 -265 -1z"/>
<path d="M2928 4805 c-307 -42 -606 -169 -833 -355 -145 -118 -256 -250 -340
-402 l-37 -68 1431 0 c787 0 1431 2 1431 4 0 11 -72 126 -113 181 -111 151
-238 271 -402 379 -124 83 -217 130 -357 180 -238 86 -523 116 -780 81z m447
-301 c50 -8 126 -27 169 -42 89 -29 259 -112 262 -127 1 -5 -31 -40 -73 -77
l-75 -67 -81 35 c-149 64 -229 79 -427 78 -158 0 -185 -3 -273 -27 -54 -15
-127 -41 -164 -57 l-66 -30 -73 66 c-41 36 -74 69 -74 73 0 12 123 77 215 114
79 31 187 58 280 70 82 11 297 6 380 -9z"/>
<path d="M4693 3679 c-153 -26 -303 -132 -377 -270 -74 -136 -74 -324 1 -478
39 -81 141 -184 224 -225 211 -106 470 -79 634 66 19 16 35 34 35 38 0 5 -30
43 -66 84 l-65 75 -46 -35 c-66 -50 -108 -65 -198 -71 -66 -4 -90 -1 -136 16
-117 45 -189 141 -197 266 -9 138 44 237 156 292 49 24 69 28 142 28 100 -1
151 -21 227 -91 26 -24 48 -44 49 -44 8 0 135 182 132 189 -7 18 -94 84 -150
112 -106 54 -232 70 -365 48z"/>
<path d="M130 3165 l0 -505 308 -2 c255 -1 480 0 515 2 4 0 7 50 7 110 l0 110
-295 0 -295 0 0 90 0 90 235 0 235 0 0 105 0 105 -235 0 -235 0 0 90 0 90 295
0 295 0 0 110 0 110 -415 0 -415 0 0 -505z"/>
<path d="M1120 3165 l0 -505 120 0 120 0 0 318 c0 174 4 310 9 302 4 -8 38
-71 76 -140 147 -271 209 -380 214 -380 3 0 51 82 105 183 55 100 123 222 150
272 l51 90 3 -323 2 -322 115 0 115 0 0 505 0 505 -153 0 -154 0 -63 -117
c-34 -65 -87 -162 -118 -216 l-55 -98 -69 128 c-38 70 -89 167 -114 216 l-44
87 -155 0 -155 0 0 -505z"/>
<path d="M2380 3166 l0 -506 120 0 120 0 0 153 0 152 132 -3 c76 -2 158 1 193
8 131 26 221 95 277 216 28 60 30 71 26 152 -3 68 -10 98 -30 137 -33 64 -103
129 -176 163 l-57 27 -302 3 -303 3 0 -505z m544 270 c104 -44 102 -195 -4
-248 -28 -14 -61 -18 -167 -18 l-133 0 0 140 0 140 135 0 c93 0 146 -4 169
-14z"/>
<path d="M3421 3178 c-134 -271 -246 -499 -248 -505 -4 -10 22 -13 110 -13
l114 0 130 263 c71 144 140 287 155 317 l26 55 52 -110 c28 -60 97 -203 152
-317 l101 -208 118 0 118 0 -155 318 c-86 174 -197 400 -247 502 l-92 185 -45
3 -46 3 -243 -493z"/>
<path d="M5310 3560 l0 -110 165 0 165 0 0 -395 0 -395 120 0 120 0 0 395 0
395 175 0 175 0 0 110 0 110 -460 0 -460 0 0 -110z"/>
<path d="M5070 2373 l-256 -3 -28 -57 c-44 -90 -148 -240 -229 -332 -236 -266
-564 -469 -909 -561 -458 -122 -931 -79 -1332 122 -221 110 -367 217 -534 392
-99 104 -208 251 -268 363 l-39 73 -278 0 -278 0 6 -22 c15 -51 136 -281 205
-388 232 -366 548 -660 907 -843 314 -161 631 -247 976 -267 704 -39 1361 221
1852 732 191 198 321 386 450 648 61 126 67 151 33 148 -13 -2 -138 -4 -278
-5z"/>
<path d="M1736 2358 c203 -338 501 -576 872 -698 205 -67 311 -84 522 -84 136
0 213 4 290 18 317 55 620 200 841 403 122 111 254 267 298 351 l12 22 -1421
0 c-1134 0 -1420 -3 -1414 -12z m1125 -240 c75 -20 106 -23 289 -23 186 0 213
2 290 24 47 13 109 35 138 47 l54 24 79 -72 c43 -40 79 -75 79 -79 0 -7 -138
-69 -214 -96 -268 -95 -573 -96 -846 -3 -93 32 -210 87 -210 99 0 5 32 41 72
79 l71 69 57 -23 c31 -12 94 -33 141 -46z"/>
</g>
</svg>
