 <svg  version="1.0" xmlns="http://www.w3.org/2000/svg"  width="621.000000pt" height="136.000000pt" viewBox="0 0 621.000000 136.000000"  preserveAspectRatio="xMidYMid meet">  <g transform="translate(0.000000,136.000000) scale(0.100000,-0.100000)" fill="#102e44" stroke="none"> <path d="M3340 1246 c-122 -26 -239 -124 -280 -234 -31 -81 -25 -213 13 -292 71 -148 194 -222 366 -221 80 1 150 18 198 47 37 23 83 65 83 76 0 5 -21 31 -46 58 l-46 49 -34 -25 c-37 -29 -111 -54 -159 -54 -87 0 -179 64 -211 146 -24 64 -15 162 20 213 49 71 153 106 243 82 23 -6 64 -29 92 -51 l51 -40 45 61 c25 34 45 65 45 69 0 13 -60 60 -109 84 -86 44 -172 54 -271 32z"/> <path d="M40 875 l0 -365 300 0 300 0 0 80 0 80 -210 0 -210 0 0 65 0 65 170 0 170 0 0 75 0 75 -170 0 -170 0 0 65 0 65 210 0 210 0 0 80 0 80 -300 0 -300 0 0 -365z"/> <path d="M760 875 l0 -365 85 0 85 0 2 232 3 232 103 -192 c57 -106 108 -192 112 -192 5 0 55 85 112 190 57 104 106 190 111 190 4 0 7 -103 7 -230 l0 -230 80 0 80 0 0 365 0 365 -109 0 -109 0 -84 -155 c-45 -85 -86 -155 -90 -155 -3 0 -8 6 -10 13 -2 7 -37 77 -78 155 l-75 141 -112 1 -113 0 0 -365z"/> <path d="M1670 875 l0 -365 90 0 90 0 0 109 0 109 133 4 c124 3 135 5 185 32 90 50 132 122 132 226 0 108 -49 184 -150 229 -41 19 -65 21 -262 21 l-218 0 0 -365z m426 182 c49 -43 30 -144 -32 -167 -14 -6 -68 -10 -120 -10 l-94 0 0 100 0 100 109 0 c100 0 112 -2 137 -23z"/> <path d="M2431 888 c-96 -194 -176 -359 -178 -365 -4 -10 15 -13 77 -13 l81 0 114 233 c102 210 114 230 123 207 5 -14 55 -118 110 -232 l101 -208 80 0 c45 0 81 3 81 6 0 6 -31 70 -239 497 l-111 227 -33 0 -33 0 -173 -352z"/> <path d="M3800 1165 l0 -75 63 -2 c34 -1 80 -3 102 -4 22 -2 48 -3 58 -3 16 -1 17 -22 17 -286 l0 -285 85 0 85 0 0 285 0 285 125 0 125 0 0 80 0 80 -330 0 -330 0 0 -75z"/> </g> </svg> 